<?xml version="1.0" standalone="no"?>
<!DOCTYPE svg PUBLIC "-//W3C//DTD SVG 20010904//EN"
 "http://www.w3.org/TR/2001/REC-SVG-20010904/DTD/svg10.dtd">
<svg version="1.0" xmlns="http://www.w3.org/2000/svg"
 width="2008.000000pt" height="1988.000000pt" viewBox="0 0 2008.000000 1988.000000"
 preserveAspectRatio="xMidYMid meet">

<g transform="translate(0.000000,1988.000000) scale(0.100000,-0.100000)"
fill="#000000" stroke="none">
<path d="M9810 15206 c-13 -35 -26 -194 -20 -243 6 -39 5 -42 -23 -47 -16 -3
-64 -6 -107 -6 -94 0 -129 -6 -158 -28 -22 -17 -22 -17 -4 -64 20 -53 36 -72
116 -142 31 -27 56 -54 55 -60 0 -6 -27 -33 -60 -59 -33 -27 -80 -76 -104
-108 -38 -52 -43 -63 -33 -84 13 -28 44 -35 178 -41 140 -6 130 4 131 -132 0
-127 13 -185 43 -190 18 -4 102 48 164 103 52 45 85 101 72 125 -5 10 -10 46
-10 79 0 53 -3 63 -27 85 -16 15 -45 28 -71 32 -38 6 -46 11 -58 40 -8 18 -14
42 -14 52 0 11 -13 36 -30 57 -28 35 -28 38 -13 61 8 13 19 24 24 24 6 0 26
55 45 126 1 6 34 21 73 33 38 12 74 27 78 34 4 6 8 31 8 54 0 45 19 56 21 13
2 -58 4 -61 62 -87 31 -14 73 -26 92 -27 35 -2 35 -2 48 -66 7 -36 22 -78 34
-94 18 -25 19 -32 8 -50 -29 -45 -40 -72 -46 -113 -5 -36 -11 -44 -33 -49 -93
-20 -176 -72 -166 -104 10 -32 8 -92 -3 -99 -13 -8 6 -33 91 -127 59 -63 135
-111 162 -101 23 9 37 84 39 202 l1 110 130 2 c204 4 222 11 189 75 -17 32
-90 115 -148 167 -75 66 -73 61 -30 81 22 9 71 51 111 92 74 76 98 123 72 139
-33 20 -135 34 -297 38 -22 1 -22 3 -16 79 8 99 -10 218 -36 232 -20 11 -90
-13 -90 -30 0 -6 -6 -10 -14 -10 -7 0 -44 -34 -81 -75 -37 -41 -73 -75 -80
-75 -7 0 -25 17 -41 38 -41 54 -89 102 -103 102 -6 0 -11 4 -11 8 0 11 -74 52
-94 52 -9 0 -21 -11 -26 -24z m-6 -591 c-6 -15 -49 -20 -78 -9 -28 11 -6 24
39 24 35 0 43 -3 39 -15z m571 6 c-3 -6 7 -6 27 0 41 11 38 12 38 -6 0 -11
-11 -15 -40 -15 -29 0 -40 4 -40 15 0 8 5 15 11 15 5 0 8 -4 4 -9z m-505 -231
c0 -11 -39 -34 -46 -27 -6 6 25 37 37 37 5 0 9 -4 9 -10z"/>
<path d="M7158 14143 c-6 -16 -13 -80 -15 -143 -6 -175 5 -160 -121 -160 -154
-1 -201 -15 -202 -60 0 -21 73 -117 118 -155 53 -44 72 -64 72 -74 0 -5 -19
-22 -42 -38 -50 -34 -168 -176 -168 -203 0 -25 82 -43 215 -45 55 -1 103 -3
108 -3 4 -1 7 -58 7 -126 0 -138 11 -186 42 -186 27 0 108 55 178 119 30 28
59 51 63 51 5 0 38 -29 74 -65 75 -74 148 -126 168 -119 24 10 38 74 44 199
l6 120 140 6 c77 4 145 7 152 8 20 2 41 30 36 48 -2 10 -47 63 -99 118 -52 54
-94 107 -94 116 0 9 10 23 23 32 37 24 141 134 159 168 12 23 14 36 7 45 -16
20 -113 36 -213 35 -50 0 -97 4 -105 8 -11 7 -11 21 -2 77 20 113 -12 244 -59
244 -22 0 -105 -69 -209 -172 -16 -16 -21 -13 -91 54 -86 81 -147 128 -167
128 -7 0 -18 -12 -25 -27z m289 -355 c13 -12 54 -29 91 -39 l67 -17 8 -47 c14
-87 63 -140 121 -132 10 1 21 -4 23 -10 3 -9 -4 -11 -24 -7 -15 3 -40 1 -55
-5 -31 -12 -68 -76 -68 -119 0 -32 -14 -41 -90 -62 -25 -7 -58 -21 -73 -32
-18 -13 -32 -17 -40 -11 -15 12 -115 51 -140 55 -12 2 -27 25 -44 68 -14 36
-34 74 -44 86 -26 28 -24 37 15 91 19 27 37 64 41 84 7 39 20 49 92 68 22 6
52 20 65 31 29 24 27 24 55 -2z m-252 -464 c-9 -9 -18 -14 -21 -11 -9 9 6 27
22 27 13 0 13 -2 -1 -16z"/>
<path d="M12468 14097 c-21 -16 -37 -100 -39 -202 -3 -116 -2 -115 -112 -115
-105 -1 -177 -14 -193 -36 -20 -25 49 -138 118 -193 31 -25 59 -51 61 -57 6
-13 -38 -65 -77 -90 -38 -24 -116 -132 -116 -161 0 -34 36 -44 180 -52 l125
-6 3 -125 c3 -134 18 -190 51 -190 27 0 110 59 173 124 61 62 77 91 59 109 -6
6 -11 39 -11 73 0 76 -11 90 -79 99 -57 8 -74 27 -85 92 -4 22 -18 56 -32 74
-30 41 -30 64 0 84 15 10 26 30 30 53 14 77 23 89 76 96 34 5 58 15 80 36 29
27 31 32 24 76 -6 44 2 63 29 64 11 0 9 -68 -3 -91 -20 -37 63 -91 145 -93 34
-2 42 -14 47 -71 6 -72 21 -86 100 -94 47 -4 64 -10 66 -22 4 -20 -26 -29 -80
-24 -23 3 -45 -1 -52 -8 -23 -23 -38 -76 -34 -119 l3 -43 -61 -7 c-34 -4 -80
-16 -101 -27 l-39 -20 0 -83 1 -83 45 -55 c66 -79 106 -115 151 -135 34 -16
42 -16 54 -4 22 22 46 156 43 234 l-3 70 120 1 c116 1 182 15 199 42 12 21
-30 81 -122 169 l-94 93 23 20 c13 10 28 19 32 20 14 0 109 94 138 137 32 45
38 88 14 97 -17 6 -221 27 -245 24 -61 -6 -61 -6 -54 96 5 75 3 104 -11 149
-22 70 -35 83 -67 65 -13 -7 -25 -16 -28 -19 -3 -3 -19 -13 -36 -22 -41 -21
-154 -147 -154 -172 0 -12 -49 46 -50 60 -2 24 -122 135 -146 135 -4 0 -17 9
-29 20 -17 16 -24 18 -37 7z m503 -374 c-16 -28 -38 -53 -45 -53 -14 0 -5 31
16 50 27 25 42 26 29 3z m-531 -230 c0 -7 -11 -14 -25 -14 -14 -1 -31 -2 -37
-3 -7 -1 -14 7 -16 16 -3 15 3 18 37 16 27 -1 41 -6 41 -15z"/>
<path d="M10040 13214 c0 -22 -5 -65 -10 -95 -6 -30 -12 -91 -13 -135 -2 -55
-9 -88 -20 -105 -9 -13 -17 -42 -17 -65 0 -43 -22 -74 -52 -74 -23 0 -35 -20
-42 -73 -6 -38 -13 -50 -32 -59 -31 -14 -31 -31 1 -52 43 -28 29 -94 -24 -111
-18 -5 -31 -43 -31 -91 0 -12 -9 -39 -21 -58 -16 -28 -18 -39 -9 -56 9 -17 8
-43 -4 -115 -9 -51 -16 -110 -16 -131 0 -23 -8 -49 -20 -64 -15 -19 -20 -41
-20 -90 0 -62 -2 -66 -30 -82 -41 -23 -40 -55 2 -66 23 -6 36 -17 43 -36 13
-36 -1 -56 -58 -83 -26 -13 -47 -27 -47 -32 0 -4 10 -21 21 -35 19 -24 20 -32
10 -65 -6 -21 -11 -70 -11 -109 0 -61 -3 -74 -26 -102 -24 -28 -32 -31 -78
-29 -83 2 -96 8 -96 38 0 15 7 36 15 47 19 25 19 49 -1 79 -15 23 -15 27 0 50
9 13 25 29 36 35 25 13 27 66 4 99 -12 16 -15 37 -12 73 5 44 2 53 -18 71 -25
22 -31 56 -14 87 13 25 -12 50 -51 50 -39 0 -39 31 1 93 36 58 37 70 5 91 -22
15 -25 23 -25 79 0 93 -18 177 -45 209 -14 17 -26 47 -30 76 -5 40 -30 169
-41 210 -7 27 -24 10 -24 -25 0 -21 -10 -91 -22 -156 -21 -116 -22 -119 -54
-132 -25 -10 -35 -23 -43 -52 -6 -21 -17 -47 -25 -58 -20 -26 -20 -50 0 -80
18 -28 7 -57 -27 -76 -20 -10 -21 -16 -15 -80 4 -38 9 -79 11 -90 2 -12 -8
-33 -26 -54 -24 -27 -32 -49 -40 -102 -5 -37 -14 -90 -19 -116 -6 -27 -10 -66
-10 -87 0 -21 -6 -43 -15 -50 -18 -15 -20 -57 -3 -62 7 -3 13 -22 13 -47 0
-36 -6 -47 -30 -67 -30 -24 -35 -54 -14 -80 20 -24 -17 -174 -60 -244 -13 -21
-21 -52 -21 -78 0 -24 -5 -52 -11 -63 -8 -16 -7 -26 6 -45 9 -14 15 -35 13
-47 -2 -18 -11 -23 -45 -25 -23 -2 -51 2 -63 8 -24 13 -27 52 -5 70 20 16 19
30 -2 45 -12 9 -16 24 -15 47 2 25 -4 40 -23 58 -26 24 -33 64 -14 76 7 4 9
23 5 53 -10 71 -52 235 -70 269 -9 18 -16 57 -16 94 -1 35 -5 83 -11 108 -5
25 -12 68 -15 95 -8 83 -13 92 -49 115 -53 33 -66 66 -66 178 -1 110 -15 203
-35 229 -12 16 -13 6 -14 -67 0 -47 -7 -107 -15 -134 -10 -34 -12 -59 -6 -87
8 -35 6 -43 -15 -68 -33 -40 -44 -74 -44 -138 0 -31 -5 -73 -12 -94 -9 -31 -8
-48 2 -80 13 -38 12 -43 -18 -102 -18 -34 -32 -66 -32 -70 0 -5 -9 -20 -20
-35 -18 -22 -20 -34 -14 -86 4 -34 12 -74 19 -91 17 -42 39 -189 32 -209 -4
-10 -18 -16 -40 -16 -19 0 -39 -6 -45 -13 -6 -7 -23 -55 -37 -107 -14 -52 -35
-119 -47 -148 -17 -46 -19 -59 -9 -91 9 -31 8 -45 -6 -79 -15 -40 -15 -44 2
-83 18 -38 18 -43 2 -68 -9 -14 -30 -53 -48 -86 -31 -58 -31 -60 -14 -91 17
-31 17 -85 3 -228 -3 -25 4 -32 72 -72 74 -42 76 -43 171 -43 l96 -1 5 -183
c3 -101 3 -196 1 -211 -6 -31 -54 -66 -89 -66 -14 0 -31 14 -48 40 -35 54 -55
53 -49 -1 l5 -42 -43 6 c-24 3 -53 8 -64 11 -11 4 -26 3 -33 -2 -19 -13 4 -69
31 -75 12 -3 594 -6 1292 -6 699 0 1479 -2 1735 -4 256 -2 559 -2 673 0 190 3
208 5 205 21 -2 13 -15 18 -53 19 -28 2 -73 5 -101 8 l-50 6 0 46 c1 59 -16
65 -39 13 -19 -42 -20 -43 -75 -40 -57 2 -60 13 -59 219 1 102 4 197 8 211 7
25 9 25 119 28 108 3 113 4 124 27 7 16 28 29 67 42 52 17 56 20 54 47 -1 16
-10 37 -19 47 -15 17 -15 23 -4 44 11 21 11 30 -5 65 -18 40 -18 41 3 61 16
15 22 32 22 65 0 40 -5 49 -46 89 l-45 44 7 124 c6 112 5 132 -15 197 -12 40
-20 83 -17 95 15 59 -49 158 -110 169 -32 6 -35 10 -28 29 4 12 8 56 8 97 1
45 7 85 15 100 21 37 18 127 -7 180 -12 25 -22 57 -22 72 0 20 -8 32 -30 43
-37 19 -38 36 -5 79 30 40 31 61 5 104 -12 19 -20 50 -20 76 0 45 -17 106 -29
106 -18 0 -30 56 -37 174 -3 70 -10 128 -14 131 -4 2 -17 -58 -31 -133 -23
-131 -26 -139 -62 -179 -36 -39 -38 -46 -41 -111 -2 -59 -6 -75 -29 -102 -23
-27 -27 -41 -27 -96 0 -45 -7 -82 -24 -122 -27 -66 -52 -249 -43 -315 4 -31 2
-50 -9 -66 -9 -12 -18 -47 -21 -79 -6 -75 -30 -149 -50 -156 -23 -9 -83 4 -83
18 0 7 6 18 12 24 8 8 13 48 14 110 1 53 4 111 8 128 6 26 1 38 -29 75 -19 24
-49 61 -66 82 -37 45 -35 66 9 81 53 17 46 32 -23 52 -22 7 -31 17 -35 40 -9
39 5 74 30 81 38 10 24 51 -27 77 -40 20 -43 50 -7 78 l25 20 -22 24 c-26 27
-46 141 -29 158 18 18 11 42 -15 54 -26 12 -31 32 -15 61 7 14 3 22 -20 40
-37 27 -37 36 0 69 17 15 30 31 30 37 0 6 -13 24 -30 40 -33 32 -40 74 -15 95
22 18 19 27 -23 79 -55 68 -147 211 -160 249 -7 19 -14 64 -17 100 -4 37 -8
77 -11 90 -13 62 -36 -26 -58 -216 -12 -103 -20 -131 -45 -176 -24 -41 -31
-66 -31 -106 0 -34 -6 -61 -18 -78 -38 -56 -52 -113 -43 -177 8 -50 6 -62 -7
-72 -9 -7 -22 -13 -30 -13 -23 0 -8 -35 16 -38 37 -5 38 -30 3 -66 -30 -31
-31 -35 -22 -77 10 -46 5 -60 -32 -87 -31 -24 -18 -64 28 -88 45 -23 55 -51
31 -86 -20 -28 -20 -58 -1 -84 24 -32 19 -54 -13 -54 -38 0 -58 25 -67 80 -8
48 -43 116 -75 145 -11 10 -20 24 -20 30 0 7 -8 23 -18 35 -18 23 -19 23 -49
5 -64 -38 -84 13 -33 83 35 49 38 72 10 90 -27 16 -25 44 5 92 28 44 30 69 13
135 -10 36 -10 50 0 65 18 29 15 50 -14 103 -21 40 -24 56 -18 93 l6 44 -46 0
c-39 0 -48 4 -57 24 -18 38 19 109 70 136 23 11 41 26 41 34 0 7 -18 21 -41
31 -52 24 -69 49 -69 102 0 37 6 49 42 85 l41 41 -26 21 c-27 22 -60 64 -101
131 -19 31 -27 64 -35 147 -18 166 -71 348 -71 242z m-158 -3321 c17 -15 41
-45 54 -65 23 -36 24 -45 24 -212 0 -141 -3 -176 -15 -186 -12 -10 -16 -8 -25
15 -5 14 -10 35 -10 46 0 11 -4 17 -10 14 -5 -3 -10 -26 -10 -50 0 -24 -4 -55
-10 -69 -8 -23 -15 -26 -60 -26 l-50 0 -28 57 c-36 73 -58 83 -48 22 14 -85
15 -83 -34 -96 -25 -6 -73 -12 -107 -12 -53 -1 -64 2 -74 20 l-11 21 -23 -22
c-19 -17 -32 -21 -81 -18 l-59 3 0 245 0 245 95 7 c82 6 104 4 163 -15 l68
-21 25 32 c14 18 47 49 72 68 40 31 53 35 86 31 23 -3 50 -16 68 -34z m448 22
c7 -8 30 -20 52 -27 22 -6 47 -22 55 -35 15 -22 21 -23 138 -23 103 0 124 -3
129 -16 3 -9 6 -93 6 -188 l0 -173 -29 -37 c-16 -21 -31 -42 -33 -48 -2 -6
-26 -12 -54 -12 l-49 -1 3 50 3 50 -42 -47 c-34 -40 -47 -48 -75 -48 -20 0
-35 5 -35 13 -1 6 -3 19 -4 27 -1 8 -3 21 -4 28 -2 23 -19 12 -38 -25 -16 -34
-22 -38 -61 -41 -24 -2 -50 2 -57 8 -10 9 -20 7 -39 -5 -14 -9 -35 -15 -48
-13 l-23 3 -2 278 -2 277 64 -6 c50 -5 68 -3 86 10 29 20 43 20 59 1z m-1251
-89 c15 -8 44 -33 64 -56 l37 -41 -2 -191 -3 -192 -35 -9 c-38 -10 -96 11
-106 38 -12 30 -27 15 -21 -20 4 -21 1 -37 -6 -42 -14 -8 -472 -16 -504 -8
-22 5 -23 9 -23 143 0 123 3 142 24 188 13 28 36 60 51 72 48 38 123 24 150
-28 9 -17 23 -30 34 -30 20 0 76 57 93 96 14 30 32 31 53 2 l16 -23 31 35 c39
43 87 80 105 80 8 0 26 -6 42 -14z m2015 -57 c24 -27 48 -49 53 -49 4 0 14 9
21 20 15 25 37 17 52 -19 11 -27 30 -41 74 -55 13 -4 28 4 50 29 46 50 86 49
137 -5 45 -47 54 -88 47 -218 -4 -73 -9 -94 -31 -129 l-27 -43 -158 1 c-86 1
-195 4 -241 7 l-84 7 -11 40 c-14 49 -60 80 -99 66 -14 -5 -28 -7 -31 -4 -3 4
-6 74 -6 157 0 170 2 176 73 225 76 52 113 45 181 -30z"/>
<path d="M6028 11523 c-20 -23 -41 -158 -37 -236 2 -34 0 -68 -4 -74 -6 -9
-37 -13 -96 -13 -187 0 -217 -16 -182 -96 11 -25 47 -73 81 -108 33 -34 60
-71 60 -82 0 -11 -27 -46 -61 -79 -103 -102 -137 -174 -86 -189 12 -4 77 -10
145 -13 72 -3 125 -10 129 -17 4 -6 8 -60 9 -119 5 -216 25 -245 116 -165 20
18 55 48 78 67 70 57 81 82 74 181 -4 47 -11 91 -17 98 -12 16 -73 42 -96 42
-19 0 -51 52 -51 84 0 13 -11 40 -25 60 -30 44 -31 51 -6 82 11 14 27 49 37
77 21 67 25 71 76 86 64 19 98 56 98 105 0 23 5 48 10 56 16 26 33 -4 28 -51
-3 -37 0 -46 28 -74 31 -32 69 -45 126 -45 24 0 28 -3 23 -19 -6 -20 22 -148
36 -167 5 -6 0 -27 -11 -49 -10 -20 -22 -57 -26 -81 -6 -43 -7 -43 -77 -70
-98 -37 -110 -54 -113 -144 -2 -71 -1 -75 37 -126 35 -48 124 -125 175 -152
17 -9 24 -9 32 1 22 26 35 107 34 214 0 62 3 115 8 118 4 2 33 -1 63 -7 64
-14 194 2 235 28 21 14 22 16 7 52 -9 21 -50 69 -95 112 -44 41 -80 82 -80 90
0 8 35 49 78 91 99 98 117 124 104 153 -14 31 -73 46 -185 46 -52 0 -102 3
-111 6 -13 5 -14 21 -9 105 5 77 2 110 -11 153 -30 93 -33 95 -102 43 -73 -55
-107 -89 -147 -144 -33 -47 -44 -52 -54 -26 -10 25 -70 93 -109 123 -10 8 -39
32 -63 53 -51 43 -53 43 -73 20z"/>
<path d="M13522 11408 c-25 -51 -37 -160 -29 -273 2 -25 -2 -30 -18 -28 -106
14 -272 -8 -291 -38 -7 -11 17 -79 28 -79 4 0 8 -6 8 -14 0 -8 15 -28 33 -44
17 -16 54 -49 80 -72 l48 -44 -33 -25 c-55 -42 -139 -133 -158 -172 -21 -39
-17 -74 8 -84 8 -3 72 -8 141 -12 69 -3 130 -9 135 -14 5 -4 8 -52 7 -107 -2
-102 12 -183 34 -202 10 -8 33 2 92 39 60 38 87 63 116 108 41 62 41 61 39
147 -2 55 -5 62 -41 96 -29 28 -51 39 -85 44 -40 6 -46 10 -46 31 0 38 -30
118 -52 139 -19 18 -19 18 1 32 26 19 51 70 58 121 5 40 8 43 42 48 20 3 56
16 81 28 48 24 64 55 47 94 -7 16 -6 27 3 38 21 25 40 -10 33 -62 -5 -39 -4
-42 35 -68 30 -20 54 -27 96 -28 31 -1 51 -4 46 -7 -15 -9 -9 -72 11 -117 26
-57 59 -79 98 -65 23 8 31 7 35 -3 6 -16 -24 -28 -46 -20 -42 16 -93 -42 -103
-115 -4 -33 -24 -59 -41 -53 -16 5 -98 -34 -119 -57 -14 -16 -18 -36 -18 -94
0 -61 5 -80 27 -117 39 -65 44 -71 124 -128 70 -51 74 -53 92 -36 26 24 40 98
40 215 0 73 3 100 13 101 6 1 68 2 137 3 69 1 133 6 143 10 11 5 17 19 17 40
0 36 -33 81 -127 173 -35 34 -63 67 -63 75 0 7 30 36 66 63 66 51 119 116 130
160 10 42 -45 59 -194 60 l-123 0 6 95 c8 104 -6 205 -30 229 -13 13 -18 13
-44 0 -72 -35 -200 -161 -217 -211 -5 -14 -9 -12 -23 15 -19 37 -51 75 -104
126 -37 35 -109 81 -126 81 -4 0 -13 -10 -19 -22z m504 -360 c-10 -6 -20 -7
-24 -3 -9 8 20 25 31 18 5 -3 2 -10 -7 -15z m-594 -230 c17 17 59 16 52 -1 -7
-19 -76 -16 -82 3 -3 13 -2 13 7 0 8 -12 13 -12 23 -2z m583 -228 c10 -11 15
-23 12 -27 -8 -7 -47 25 -47 39 0 14 16 9 35 -12z m-455 -15 c-7 -8 -19 -15
-26 -15 -8 0 -11 6 -8 15 4 8 15 15 26 15 17 0 18 -3 8 -15z"/>
<path d="M7087 8853 c-16 -28 -31 -131 -30 -206 1 -102 12 -94 -142 -100 -108
-3 -158 -19 -163 -52 -5 -35 68 -142 130 -191 32 -25 58 -49 58 -53 0 -5 -34
-36 -75 -69 -69 -57 -135 -144 -135 -179 0 -27 63 -45 169 -50 161 -6 146 6
148 -126 2 -130 18 -187 53 -187 34 0 121 62 178 127 l52 61 0 75 c0 115 -15
133 -122 152 -38 7 -41 11 -53 75 -9 42 -43 96 -70 108 -11 5 -30 6 -43 1 -15
-6 -31 -5 -44 2 -32 17 -6 32 54 30 52 -1 54 -1 81 41 17 27 27 56 27 80 0 34
3 38 38 47 20 6 44 11 52 11 8 0 35 11 59 24 l44 23 35 -23 c32 -22 54 -28 91
-26 8 0 25 -4 38 -9 18 -7 23 -16 23 -42 0 -47 18 -99 42 -119 16 -14 31 -17
73 -12 34 4 55 3 59 -5 8 -13 46 -15 46 -3 0 5 27 26 60 47 43 28 73 58 106
107 26 37 44 74 41 82 -9 24 -74 38 -200 45 l-119 6 -1 120 c-2 134 -18 195
-50 195 -32 0 -122 -66 -174 -127 -76 -91 -83 -98 -83 -84 0 24 -94 131 -147
166 -55 36 -98 52 -106 38z m275 -305 c-2 -21 -8 -38 -12 -38 -14 0 -21 81 -8
97 10 13 13 12 18 -4 4 -10 5 -35 2 -55z m222 -70 c-8 -28 -12 -33 -20 -25 -9
8 6 47 17 47 6 0 7 -10 3 -22z"/>
<path d="M12396 8768 c-24 -57 -38 -158 -31 -221 6 -45 4 -62 -6 -68 -8 -5
-55 -9 -105 -9 -83 0 -168 -16 -202 -38 -17 -12 14 -69 72 -132 72 -80 96
-110 96 -120 0 -5 -23 -33 -51 -62 -76 -79 -129 -147 -129 -168 0 -34 112 -63
229 -59 l86 3 2 -120 c4 -203 31 -241 120 -168 25 21 72 61 103 91 60 56 85
65 94 35 6 -19 133 -136 179 -165 16 -10 35 -16 42 -13 24 9 37 86 37 203 0
75 4 115 11 120 7 4 56 6 110 4 126 -3 207 14 207 43 0 33 -51 102 -137 184
-74 71 -77 75 -55 83 13 5 54 39 90 77 175 176 168 185 -145 191 -68 1 -87 19
-77 75 10 58 7 167 -5 199 -6 15 -10 33 -8 40 1 7 -9 13 -23 15 -18 2 -48 -16
-112 -68 -49 -39 -95 -82 -104 -95 -15 -22 -18 -23 -38 -10 -12 8 -53 43 -90
78 -37 35 -85 74 -107 86 l-39 23 -14 -34z m313 -373 c78 -40 122 -38 136 5 3
11 15 25 26 30 15 9 21 7 26 -6 4 -12 -4 -26 -27 -47 -30 -27 -32 -32 -26 -75
8 -61 48 -112 86 -112 21 0 28 -4 24 -14 -3 -8 -13 -12 -22 -10 -9 2 -22 1
-28 -3 -24 -16 -64 -87 -64 -112 0 -41 -18 -57 -92 -81 -45 -14 -69 -28 -73
-41 -7 -21 -20 -25 -31 -8 -8 14 -108 59 -148 68 -26 6 -32 13 -43 59 -7 29
-22 67 -33 85 -26 41 -25 49 5 93 14 20 30 55 37 78 13 46 32 66 63 66 11 0
45 15 75 33 41 25 58 31 65 22 6 -7 25 -20 44 -30z m-44 -560 c-4 -41 -15 -42
-15 -1 0 20 4 35 9 32 5 -4 8 -17 6 -31z"/>
<path d="M7726 8231 c-8 -12 -76 -19 -82 -9 -3 4 -16 8 -29 8 -30 0 -64 -46
-72 -97 -9 -57 -19 -70 -60 -77 -64 -12 -101 -28 -111 -50 -6 -12 -13 -53 -16
-93 -4 -66 -3 -75 23 -113 15 -22 42 -56 59 -75 35 -36 130 -95 154 -95 27 0
41 53 47 180 l6 125 120 6 c207 10 223 20 175 103 -31 55 -133 156 -157 156
-7 0 -13 4 -13 10 0 14 -38 32 -44 21z m-138 -227 c-10 -10 -28 6 -28 24 0 15
1 15 17 -1 9 -9 14 -19 11 -23z"/>
<path d="M10208 7717 c-15 -12 -52 -37 -83 -56 -31 -19 -64 -46 -74 -60 -38
-53 -58 -97 -54 -116 3 -11 4 -43 3 -70 -1 -43 3 -54 27 -76 28 -25 91 -49
131 -49 18 0 22 -8 28 -60 5 -46 13 -68 33 -89 24 -26 31 -28 78 -24 30 3 53
1 57 -5 7 -12 -39 -21 -93 -19 -44 3 -68 -29 -78 -103 l-8 -54 -71 -26 c-102
-36 -100 -34 -107 -125 -6 -76 -4 -83 23 -126 36 -58 174 -171 204 -167 35 5
49 53 55 188 l6 125 120 6 c123 6 195 25 195 52 0 26 -58 104 -106 143 -26 21
-61 53 -76 69 l-28 30 71 64 c127 116 166 186 118 212 -12 6 -73 13 -137 15
-174 8 -157 -7 -157 136 0 123 -16 208 -39 208 -6 0 -23 -10 -38 -23z m22
-376 c0 -11 -9 -23 -21 -26 -28 -9 -33 -1 -17 24 16 26 38 27 38 2z"/>
<path d="M9726 7708 c-21 -35 -36 -145 -30 -219 5 -51 3 -68 -7 -75 -8 -5 -76
-11 -153 -15 -99 -5 -141 -11 -148 -20 -18 -29 3 -73 76 -153 40 -44 76 -91
80 -104 7 -20 -4 -35 -72 -102 -90 -90 -114 -132 -89 -157 22 -22 158 -44 227
-36 43 4 59 2 66 -8 5 -8 9 -68 9 -134 0 -96 4 -126 18 -153 15 -27 22 -32 40
-26 39 11 75 38 158 118 60 58 79 82 73 94 -4 9 -9 48 -12 85 -4 67 -5 68 -43
88 -21 10 -56 23 -76 27 -37 8 -39 10 -66 87 -15 44 -30 88 -34 98 -3 9 6 42
21 72 14 31 26 67 26 81 0 13 6 26 13 28 72 21 99 33 131 60 37 31 38 33 39
103 0 78 -7 94 -71 165 -30 33 -75 67 -149 111 -7 5 -18 -2 -27 -15z"/>
<path d="M5662 7093 c-36 -69 -36 -91 1 -207 20 -61 51 -165 70 -231 19 -66
50 -167 70 -225 46 -133 163 -502 176 -555 16 -59 14 -71 -16 -85 -57 -26
-215 -80 -292 -100 -44 -11 -133 -40 -198 -64 -65 -24 -158 -54 -206 -67 -49
-12 -130 -43 -180 -68 -85 -42 -94 -50 -120 -99 -16 -29 -26 -59 -23 -67 8
-21 125 -112 176 -137 25 -12 70 -38 100 -58 118 -78 437 -234 645 -315 210
-81 406 -146 510 -169 65 -14 124 -31 129 -36 13 -13 -30 -186 -85 -343 -21
-61 -36 -114 -31 -118 43 -39 643 -247 817 -283 39 -8 149 -35 245 -59 96 -25
252 -57 345 -71 94 -14 233 -37 310 -50 227 -40 428 -65 620 -76 99 -6 279
-17 400 -25 660 -45 1469 -32 2335 36 120 9 450 53 490 64 8 3 134 25 280 49
499 84 1087 249 1388 389 34 16 62 32 62 36 0 4 -14 47 -31 97 -37 110 -92
333 -85 350 2 6 44 21 93 33 242 57 680 219 888 328 28 14 91 46 140 71 50 25
120 64 157 88 37 24 82 51 100 60 63 31 178 125 178 145 0 31 -47 114 -74 132
-37 24 -159 71 -251 97 -44 12 -134 41 -200 65 -66 24 -161 55 -212 70 -126
34 -303 104 -303 118 1 45 92 348 207 682 25 72 60 186 78 255 18 69 43 154
56 188 21 60 22 66 6 95 -8 18 -18 42 -22 55 -8 28 -19 28 -58 -2 -18 -13
-102 -60 -188 -104 -86 -44 -165 -85 -175 -90 -96 -52 -544 -260 -629 -293
-33 -12 -89 -37 -125 -54 -36 -18 -90 -40 -120 -50 -30 -10 -113 -41 -185 -70
-71 -30 -170 -65 -220 -79 -49 -14 -130 -39 -180 -56 -49 -17 -115 -37 -146
-45 -67 -18 -299 -45 -382 -45 -51 0 -58 -2 -53 -17 5 -15 44 -281 62 -420 6
-52 2 -55 -131 -77 -55 -10 -185 -35 -290 -57 -322 -66 -906 -122 -1420 -135
-292 -8 -547 4 -1019 47 -373 34 -465 46 -691 93 -88 19 -187 39 -220 45 -33
6 -86 16 -119 22 l-58 11 7 66 c3 37 17 143 31 235 13 93 24 172 24 176 0 5
-48 11 -107 15 -180 11 -306 33 -450 80 -76 24 -177 56 -224 70 -47 14 -146
50 -220 79 -74 30 -146 57 -161 61 -15 3 -67 25 -115 47 -48 23 -116 52 -151
65 -34 13 -106 46 -160 73 -53 26 -108 52 -122 56 -14 4 -119 55 -235 113
-115 58 -257 129 -315 158 -58 29 -120 64 -139 78 -41 31 -47 32 -59 9z m1888
-1949 c41 -12 107 -34 145 -48 39 -13 110 -33 158 -42 124 -24 123 -23 102
-117 -12 -53 -23 -81 -35 -87 -27 -14 -38 -12 -60 10 -16 16 -19 28 -14 59 5
34 3 41 -19 56 -40 26 -118 47 -132 35 -6 -5 -17 -36 -24 -67 -7 -32 -37 -130
-66 -218 -70 -213 -72 -228 -40 -249 21 -14 26 -24 23 -49 -3 -30 -6 -32 -46
-35 -60 -4 -148 23 -167 52 -20 30 -12 49 28 67 20 9 39 28 49 51 38 81 126
443 115 472 -3 7 -33 20 -66 28 -66 17 -71 15 -88 -37 -16 -49 -93 -42 -93 9
0 26 28 115 42 133 13 16 92 6 188 -23z m5108 -2 c18 -24 15 -43 -14 -73 l-25
-26 25 -99 c13 -54 29 -133 36 -174 6 -41 21 -106 33 -144 18 -56 28 -73 54
-88 62 -37 51 -57 -55 -95 -87 -31 -114 -28 -126 14 -10 38 4 63 36 63 18 0
19 5 16 43 -3 23 -17 83 -32 132 -15 50 -36 119 -47 154 -35 121 -47 106 -79
-105 -11 -77 -28 -184 -36 -239 -9 -58 -22 -107 -31 -117 -35 -39 -102 -8
-139 65 -9 18 -33 52 -53 77 -20 25 -63 81 -94 125 -65 91 -125 160 -134 152
-14 -15 63 -374 88 -403 5 -7 23 -14 39 -17 20 -5 31 -14 36 -31 13 -53 -26
-77 -148 -91 -55 -7 -58 -6 -70 20 -14 32 -2 58 31 63 25 4 27 27 7 92 -8 25
-29 90 -46 145 -17 55 -39 140 -49 190 -17 85 -19 89 -48 97 -35 9 -68 42 -60
61 6 17 152 67 195 67 23 0 36 -7 49 -27 10 -16 34 -48 54 -73 20 -25 62 -86
93 -136 30 -50 63 -97 71 -104 9 -8 27 -34 40 -59 12 -25 35 -59 49 -74 53
-57 60 -26 81 353 7 128 23 226 39 239 6 5 40 18 76 29 70 21 117 19 138 -6z
m-4298 8 c21 -11 70 -102 70 -129 0 -26 -9 -30 -40 -19 -45 15 -114 133 -88
150 17 11 36 10 58 -2z m3056 -95 c51 -34 72 -64 59 -85 -10 -16 -30 -12 -70
15 -40 28 -70 26 -78 -4 -2 -11 -17 -27 -31 -37 -25 -16 -29 -16 -43 -1 -15
15 -14 19 11 57 39 60 68 90 84 90 8 0 39 -16 68 -35z m-3280 -80 c95 -18 129
-37 114 -65 -6 -10 -22 -25 -38 -32 -24 -12 -30 -26 -60 -143 -18 -72 -35
-169 -39 -217 -5 -84 -4 -90 21 -126 74 -108 236 -111 298 -6 9 16 29 88 43
159 14 72 30 153 37 181 13 60 8 81 -27 94 -19 7 -25 17 -25 39 0 45 17 52
101 41 41 -5 91 -14 112 -20 31 -9 37 -15 37 -39 0 -34 -13 -46 -58 -56 -42
-9 -46 -21 -62 -170 -14 -136 -29 -188 -74 -260 -53 -82 -94 -111 -175 -125
-61 -11 -79 -11 -138 4 -86 21 -109 38 -146 111 -38 75 -46 167 -23 280 8 44
21 119 27 168 10 75 10 90 -3 105 -23 26 -29 51 -18 73 6 10 12 19 14 19 3 0
39 -7 82 -15z m3316 -82 c9 -10 30 -52 48 -93 18 -41 44 -93 59 -115 14 -22
47 -84 73 -137 70 -146 133 -238 162 -238 13 0 29 -7 37 -16 19 -23 -1 -48
-47 -56 -151 -29 -174 -28 -174 6 0 13 7 29 15 36 18 15 12 45 -19 109 l-21
44 -75 -6 c-116 -9 -199 -27 -209 -46 -5 -9 -12 -41 -16 -72 l-7 -57 30 -7
c38 -8 55 -27 50 -57 -4 -31 -61 -49 -162 -51 -78 -2 -79 -1 -86 24 -9 33 -4
42 36 62 17 9 34 23 37 31 3 8 17 92 31 188 32 213 64 383 82 425 13 33 27 38
105 42 23 0 41 -5 51 -16z m-2516 -58 c25 -10 33 -22 44 -61 7 -27 33 -92 58
-144 24 -52 61 -140 82 -195 42 -113 80 -188 95 -189 9 -1 46 436 38 459 -2 6
-13 15 -26 20 -15 7 -23 20 -25 44 l-3 33 98 -7 c54 -4 106 -11 116 -17 24
-13 18 -49 -11 -64 -12 -6 -24 -13 -27 -15 -2 -3 -20 -134 -40 -293 -20 -159
-40 -297 -46 -307 -19 -37 -110 -16 -141 33 -8 13 -27 59 -42 103 -16 44 -43
109 -61 145 -18 36 -49 108 -69 160 -75 193 -86 174 -116 -198 -6 -68 -8 -128
-4 -133 3 -5 16 -9 29 -9 28 0 38 -22 25 -56 -10 -25 -11 -25 -93 -19 -121 9
-127 11 -127 43 0 34 9 47 36 56 24 7 27 20 44 161 6 50 19 151 29 225 10 74
16 141 13 148 -2 6 -12 12 -21 12 -9 0 -22 5 -29 12 -13 13 -16 60 -5 72 10
10 142 -4 179 -19z m1769 -55 c12 -19 -6 -50 -32 -56 -26 -7 -26 -7 -19 -88
15 -197 44 -467 49 -473 10 -9 239 16 253 28 7 6 14 36 16 67 l3 57 36 3 c22
2 40 -2 48 -11 6 -8 12 -52 14 -98 l2 -83 -35 -7 c-19 -4 -118 -15 -220 -24
-102 -9 -206 -19 -232 -22 -47 -5 -48 -5 -48 22 0 17 10 37 25 51 21 19 25 30
20 56 -5 31 -25 405 -25 469 0 24 -4 29 -26 29 -57 0 -83 40 -48 74 12 12 38
16 114 16 56 0 102 -4 105 -10z m-797 -11 c58 -14 212 -122 212 -148 0 -5 -7
-17 -17 -26 -21 -21 -64 -14 -113 20 -91 62 -202 80 -290 47 -34 -13 -54 -31
-82 -71 -46 -66 -58 -105 -58 -193 0 -82 22 -137 81 -199 106 -112 299 -86
369 50 27 54 16 63 -79 66 -88 2 -105 10 -99 46 3 23 7 24 123 32 157 10 182
5 190 -34 7 -31 -2 -269 -11 -301 -4 -13 -16 -18 -44 -18 -34 0 -39 4 -49 31
-6 18 -11 43 -11 55 0 30 -11 30 -36 3 -24 -27 -93 -58 -159 -72 -69 -14 -163
8 -240 58 -46 29 -61 46 -85 96 -58 123 -61 261 -9 379 32 72 128 158 199 178
48 14 152 14 208 1z"/>
<path d="M11367 4750 c-5 -28 -25 -185 -31 -235 0 -5 6 -9 14 -8 8 1 46 4 83
8 44 4 70 12 74 21 7 18 -68 169 -105 214 l-30 35 -5 -35z"/>
</g>
</svg>
